#usda 1.0
(
    endTimeCode = 120
    metersPerUnit = 0.01
    renderSettingsPrimPath = "/Render/rendersettings"
    startTimeCode = 0
    subLayers = [
        @..\index.usda@
    ]
    upAxis = "Y"
)

def Xform "World" (
    kind = "group"
)
{
    def Scope "Cameras"
    {
        def Xform "mainCamera"
        {
            float xformOp:rotateX:zoomedIn.timeSamples = {
                1: -10,
                2: -10,
                3: -10,
                4: -10,
                5: -10,
                6: -10,
                7: -10,
                8: -10,
                9: -10,
                10: -10,
                11: -10,
                12: -10,
                13: -10,
                14: -10,
                15: -10,
                16: -10,
                17: -10,
                18: -10,
                19: -10,
                20: -10,
                21: -10,
                22: -10,
                23: -10,
                24: -10,
                25: -10,
                26: -10,
                27: -10,
                28: -10,
                29: -10,
                30: -10,
                31: -10,
                32: -10,
                33: -10,
                34: -10,
                35: -10,
                36: -10,
                37: -10,
                38: -10,
                39: -10,
                40: -10,
                41: -10,
                42: -10,
                43: -10,
                44: -10,
                45: -10,
                46: -10,
                47: -10,
                48: -10,
                49: -10,
                50: -10,
                51: -10,
                52: -10,
                53: -10,
                54: -10,
                55: -10,
                56: -10,
                57: -10,
                58: -10,
                59: -10,
                60: -10,
                61: -10,
                62: -10,
                63: -10,
                64: -10,
                65: -10,
                66: -10,
                67: -10,
                68: -10,
                69: -10,
                70: -10,
                71: -10,
                72: -10,
                73: -10,
                74: -10,
                75: -10,
                76: -10,
                77: -10,
                78: -10,
                79: -10,
                80: -10,
                81: -10,
                82: -10,
                83: -10,
                84: -10,
                85: -10,
                86: -10,
                87: -10,
                88: -10,
                89: -10,
                90: -10,
                91: -10,
                92: -10,
                93: -10,
                94: -10,
                95: -10,
                96: -10,
                97: -10,
                98: -10,
                99: -10,
                100: -10,
                101: -10,
                102: -10,
                103: -10,
                104: -10,
                105: -10,
                106: -10,
                107: -10,
                108: -10,
                109: -10,
                110: -10,
                111: -10,
                112: -10,
                113: -10,
                114: -10,
                115: -10,
                116: -10,
                117: -10,
                118: -10,
                119: -10,
            }
            float xformOp:rotateY:zoomedIn.timeSamples = {
                1: 0,
                2: 3.0252101,
                3: 6.0504203,
                4: 9.07563,
                5: 12.100841,
                6: 15.12605,
                7: 18.15126,
                8: 21.17647,
                9: 24.201681,
                10: 27.22689,
                11: 30.2521,
                12: 33.27731,
                13: 36.30252,
                14: 39.327732,
                15: 42.35294,
                16: 45.37815,
                17: 48.403362,
                18: 51.42857,
                19: 54.45378,
                20: 57.478992,
                21: 60.5042,
                22: 63.52941,
                23: 66.55462,
                24: 69.579834,
                25: 72.60504,
                26: 75.63025,
                27: 78.655464,
                28: 81.68067,
                29: 84.70588,
                30: 87.731094,
                31: 90.7563,
                32: 93.78151,
                33: 96.806725,
                34: 99.83193,
                35: 102.85714,
                36: 105.882355,
                37: 108.90756,
                38: 111.93277,
                39: 114.957985,
                40: 117.98319,
                41: 121.0084,
                42: 124.033615,
                43: 127.05882,
                44: 130.08403,
                45: 133.10924,
                46: 136.13446,
                47: 139.15967,
                48: 142.18488,
                49: 145.21008,
                50: 148.23529,
                51: 151.2605,
                52: 154.28572,
                53: 157.31093,
                54: 160.33614,
                55: 163.36134,
                56: 166.38655,
                57: 169.41176,
                58: 172.43698,
                59: 175.46219,
                60: 178.4874,
                61: 181.5126,
                62: 184.53781,
                63: 187.56302,
                64: 190.58824,
                65: 193.61345,
                66: 196.63866,
                67: 199.66386,
                68: 202.68907,
                69: 205.71428,
                70: 208.7395,
                71: 211.76471,
                72: 214.78992,
                73: 217.81512,
                74: 220.84033,
                75: 223.86554,
                76: 226.89076,
                77: 229.91597,
                78: 232.94118,
                79: 235.96638,
                80: 238.9916,
                81: 242.0168,
                82: 245.04202,
                83: 248.06723,
                84: 251.09244,
                85: 254.11765,
                86: 257.14285,
                87: 260.16806,
                88: 263.19327,
                89: 266.21848,
                90: 269.24368,
                91: 272.26892,
                92: 275.29413,
                93: 278.31934,
                94: 281.34454,
                95: 284.36975,
                96: 287.39496,
                97: 290.42017,
                98: 293.44537,
                99: 296.47058,
                100: 299.4958,
                101: 302.521,
                102: 305.5462,
                103: 308.57144,
                104: 311.59665,
                105: 314.62186,
                106: 317.64706,
                107: 320.67227,
                108: 323.69748,
                109: 326.7227,
                110: 329.7479,
                111: 332.7731,
                112: 335.7983,
                113: 338.82352,
                114: 341.84872,
                115: 344.87396,
                116: 347.89917,
                117: 350.92438,
                118: 353.9496,
                119: 356.9748,
            }
            double3 xformOp:translate:zoomedIn.timeSamples = {
                1: (-0.00205230712890625, 281.2248947911853, 1033.8189380787649),
                2: (54.568464873840604, 281.2248947911853, 1032.3779450085729),
                3: (108.98688423582617, 281.2248947911853, 1028.0589821041358),
                4: (163.10153188374517, 281.2248947911853, 1020.8740870897042),
                5: (216.7615805887656, 281.2248947911853, 1010.8432855563439),
                6: (269.8174701708449, 281.2248947911853, 997.9945351470221),
                7: (322.12132434977616, 281.2248947911853, 982.3636476336425),
                8: (373.5273629029037, 281.2248947911853, 963.9941891032125),
                9: (423.8923079807508, 281.2248947911853, 942.9373585313464),
                10: (473.0757834480832, 281.2248947911853, 919.2518450815362),
                11: (520.9407061373764, 281.2248947911853, 893.003664527928),
                12: (567.3536679241894, 281.2248947911853, 864.2659752575175),
                13: (612.185307559536, 281.2248947911853, 833.1188743646053),
                14: (655.3106712228871, 281.2248947911853, 799.6491744058285),
                15: (696.60956079088, 281.2248947911853, 763.9501614379947),
                16: (735.9668688510463, 281.2248947911853, 726.121335013111),
                17: (773.2728995268168, 281.2248947911853, 686.2681308552856),
                18: (808.4236742196024, 281.2248947911853, 644.5016269924549),
                19: (841.3212214157993, 281.2248947911853, 600.9382341619967),
                20: (871.8738497509686, 281.2248947911853, 555.6993713531257),
                21: (899.9964035701147, 281.2248947911853, 508.9111273903943),
                22: (925.6105002717682, 281.2248947911853, 460.70390950152245),
                23: (948.644748774356, 281.2248947911853, 411.212079849065),
                24: (969.0349484959492, 281.2248947911853, 360.5735810389664),
                25: (986.7242682928002, 281.2248947911853, 308.9295516497758),
                26: (1001.6634048579326, 281.2248947911853, 256.4239328541161),
                27: (1013.8107201383023, 281.2248947911853, 203.20306722881705),
                28: (1023.1323573875172, 281.2248947911853, 149.41529087190796),
                29: (1029.6023355306636, 281.2248947911853, 95.21051996330574),
                30: (1033.2026215782212, 281.2248947911853, 40.73983292153433),
                31: (1033.923180887239, 281.2248947911853, -13.844950678925276),
                32: (1031.7620051296858, 281.2248947911853, -68.39169325601947),
                33: (1026.7251178900194, 281.2248947911853, -122.74836325484968),
                34: (1018.8265578763776, 281.2248947911853, -176.76345888688334),
                35: (1008.0883397921799, 281.2248947911853, -230.28643039261183),
                36: (994.5403929772008, 281.2248947911853, -283.1680996507329),
                37: (978.2204779891316, 281.2248947911853, -335.26107596433053),
                38: (959.1740813581345, 281.2248947911853, -386.42016686518195),
                39: (937.4542888077227, 281.2248947911853, -436.50278279120863),
                40: (913.1216372953301, 281.2248947911853, -485.36933450916075),
                41: (886.2439462849511, 281.2248947911853, -532.8836221748455),
                42: (856.8961287221324, 281.2248947911853, -578.9132149465211),
                43: (825.1599822381554, 281.2248947911853, -623.3298200934074),
                44: (791.1239611653692, 281.2248947911853, -666.0096405705333),
                45: (754.8829299991, 281.2248947911853, -706.8337200633075),
                46: (716.5378989932883, 281.2248947911853, -745.6882745401018),
                47: (676.1957426267949, 281.2248947911853, -782.4650093887556),
                48: (633.9689017250578, 281.2248947911853, -817.0614212530837),
                49: (589.9750700673472, 281.2248947911853, -849.3810837281138),
                50: (544.336866353092, 281.2248947911853, -879.3339161177723),
                51: (497.18149244157223, 281.2248947911853, -906.836434505941),
                52: (448.64037881752193, 281.2248947911853, -931.8119844411051),
                53: (398.84881827079687, 281.2248947911853, -954.1909545860572),
                54: (347.9455888111023, 281.2248947911853, -973.9109707371796),
                55: (296.07256686879003, 281.2248947911853, -990.9170696725374),
                56: (243.37433185979853, 281.2248947911853, -1005.1618523442366),
                57: (189.997763216892, 281.2248947911853, -1016.6056159880702),
                58: (136.0916310103359, 281.2248947911853, -1025.2164647822447),
                59: (81.8061812990284, 281.2248947911853, -1030.970398746755),
                60: (27.29271736778715, 281.2248947911853, -1033.8513806356345),
                61: (-27.29682198204471, 281.2248947911853, -1033.8513806356345),
                62: (-81.81028591328642, 281.2248947911853, -1030.970398746755),
                63: (-136.09573562459346, 281.2248947911853, -1025.2164647822447),
                64: (-190.00186783115, 281.2248947911853, -1016.6056159880702),
                65: (-243.3784364740561, 281.2248947911853, -1005.1618523442366),
                66: (-296.0766714830476, 281.2248947911853, -990.9170696725375),
                67: (-347.94969342536035, 281.2248947911853, -973.9109707371795),
                68: (-398.85292288505445, 281.2248947911853, -954.1909545860573),
                69: (-448.6444834317795, 281.2248947911853, -931.8119844411052),
                70: (-497.1855970558298, 281.2248947911853, -906.8364345059412),
                71: (-544.3409709673496, 281.2248947911853, -879.3339161177724),
                72: (-589.9791746816053, 281.2248947911853, -849.3810837281137),
                73: (-633.9730063393154, 281.2248947911853, -817.0614212530838),
                74: (-676.1998472410525, 281.2248947911853, -782.4650093887558),
                75: (-716.5420036075462, 281.2248947911853, -745.6882745401017),
                76: (-754.8870346133576, 281.2248947911853, -706.8337200633077),
                77: (-791.1280657796269, 281.2248947911853, -666.0096405705335),
                78: (-825.164086852413, 281.2248947911853, -623.3298200934076),
                79: (-856.90023333639, 281.2248947911853, -578.9132149465213),
                80: (-886.248050899209, 281.2248947911853, -532.8836221748453),
                81: (-913.125741909588, 281.2248947911853, -485.3693345091606),
                82: (-937.4583934219806, 281.2248947911853, -436.50278279120846),
                83: (-959.178185972392, 281.2248947911853, -386.4201668651824),
                84: (-978.2245826033893, 281.2248947911853, -335.261075964331),
                85: (-994.5444975914585, 281.2248947911853, -283.16809965073344),
                86: (-1008.0924444064378, 281.2248947911853, -230.28643039261118),
                87: (-1018.8306624906354, 281.2248947911853, -176.76345888688337),
                88: (-1026.7292225042772, 281.2248947911853, -122.7483632548497),
                89: (-1031.7661097439436, 281.2248947911853, -68.39169325601948),
                90: (-1033.9272855014967, 281.2248947911853, -13.84495067892599),
                91: (-1033.206726192479, 281.2248947911853, 40.73983292153476),
                92: (-1029.6064401449214, 281.2248947911853, 95.21051996330617),
                93: (-1023.136462001775, 281.2248947911853, 149.41529087190744),
                94: (-1013.8148247525601, 281.2248947911853, 203.20306722881676),
                95: (-1001.6675094721905, 281.2248947911853, 256.42393285411583),
                96: (-986.7283729070582, 281.2248947911853, 308.9295516497749),
                97: (-969.039053110207, 281.2248947911853, 360.5735810389663),
                98: (-948.6488533886137, 281.2248947911853, 411.21207984906516),
                99: (-925.6146048860259, 281.2248947911853, 460.7039095015227),
                100: (-900.0005081843727, 281.2248947911853, 508.91112739039386),
                101: (-871.8779543652267, 281.2248947911853, 555.6993713531253),
                102: (-841.3253260300568, 281.2248947911853, 600.938234161997),
                103: (-808.4277788338603, 281.2248947911853, 644.5016269924546),
                104: (-773.2770041410746, 281.2248947911853, 686.2681308552854),
                105: (-735.9709734653042, 281.2248947911853, 726.1213350131109),
                106: (-696.6136654051384, 281.2248947911853, 763.9501614379942),
                107: (-655.3147758371448, 281.2248947911853, 799.6491744058287),
                108: (-612.1894121737936, 281.2248947911853, 833.1188743646055),
                109: (-567.3577725384476, 281.2248947911853, 864.2659752575173),
                110: (-520.9448107516346, 281.2248947911853, 893.0036645279278),
                111: (-473.0798880623413, 281.2248947911853, 919.2518450815361),
                112: (-423.89641259500877, 281.2248947911853, 942.9373585313464),
                113: (-373.5314675171616, 281.2248947911853, 963.9941891032125),
                114: (-322.1254289640339, 281.2248947911853, 982.3636476336425),
                115: (-269.82157478510254, 281.2248947911853, 997.9945351470222),
                116: (-216.7656852030241, 281.2248947911853, 1010.8432855563436),
                117: (-163.10563649800264, 281.2248947911853, 1020.8740870897042),
                118: (-108.99098885008354, 281.2248947911853, 1028.0589821041358),
                119: (-54.57256948809878, 281.2248947911853, 1032.3779450085729),
            }
            uniform token[] xformOpOrder = ["xformOp:translate:zoomedIn", "xformOp:rotateY:zoomedIn", "xformOp:rotateX:zoomedIn"]

            def Camera "mono"
            {
                float2 clippingRange = (0.1, 100000)
                float focalLength = 32
                float horizontalAperture = 10.24
                double shutter:close = 0
                double shutter:open = 0
                float verticalAperture = 7.68
            }
        }
    }
}

def Scope "Render"
{
    def "Products"
    {
        def "Vars"
        {
            def RenderVar "rgba"
            {
                custom string driver:parameters:aov:name = "rgba"
                custom string driver:parameters:aov:source = "rgba"
                uniform string sourceName = "rgba"
            }
        }

        def RenderProduct "rgba"
        {
            uniform token aspectRatioConformPolicy = "expandAperture"
            rel camera = </World/Cameras/mainCamera/mono>
            uniform float4 dataWindowNDC = (0, 0, 1, 1)
            custom string driver:aovNames = "rgba"
            custom string driver:imagePath = "placeholder.jpg"
            custom string driver:parameters:subimage = "rgba"
            custom string imageName = "beauty"
            uniform bool instantaneousShutter = 0
            prepend rel orderedVars = </Render/Products/Vars/rgba>
            custom string partName = "rgba"
            uniform float pixelAspectRatio = 1
            token productName = "placeholder.jpg"
            uniform int2 resolution = (1024, 768)
        }
    }

    def RenderSettings "rendersettings"
    {
        uniform token aspectRatioConformPolicy = "expandAperture"
        rel camera = </World/Cameras/mainCamera/mono>
        uniform float4 dataWindowNDC = (0, 0, 1, 1)
        uniform token[] includedPurposes = ["default"]
        uniform bool instantaneousShutter = 0
        uniform float pixelAspectRatio = 1
        prepend rel products = </Render/Products/rgba>
        uniform int2 resolution = (1024, 768)
    }
}

